P2
# Created by GIMP version 2.10.22 PNM plug-in
5 5
255
254
254
254
254
254
254
50
50
50
254
254
50
254
50
254
254
50
50
50
254
254
254
254
254
254
